<?xml version="1.0" encoding="UTF-8" standalone="no"?>
<!-- Created with Inkscape (http://www.inkscape.org/) -->

<svg
   version="1.1"
   id="svg1"
   width="264"
   height="282.66666"
   viewBox="0 0 264 282.66666"
   sodipodi:docname="Icon.svg"
   inkscape:version="1.4.4 (dcaf3e7d9e, 2026-05-05)"
   xmlns:inkscape="http://www.inkscape.org/namespaces/inkscape"
   xmlns:sodipodi="http://sodipodi.sourceforge.net/DTD/sodipodi-0.dtd"
   xmlns="http://www.w3.org/2000/svg"
   xmlns:svg="http://www.w3.org/2000/svg">
  <defs
     id="defs1" />
  <sodipodi:namedview
     id="namedview1"
     pagecolor="#2d2d2d"
     bordercolor="#000000"
     borderopacity="0.25"
     inkscape:showpageshadow="2"
     inkscape:pageopacity="0.0"
     inkscape:pagecheckerboard="true"
     inkscape:deskcolor="#000000"
     inkscape:zoom="2.8284271"
     inkscape:cx="105.35891"
     inkscape:cy="140.00714"
     inkscape:window-width="2048"
     inkscape:window-height="1115"
     inkscape:window-x="0"
     inkscape:window-y="0"
     inkscape:window-maximized="1"
     inkscape:current-layer="g1">
    <inkscape:page
       x="0"
       y="0"
       width="264"
       height="282.66666"
       id="page2"
       margin="0"
       bleed="0" />
  </sodipodi:namedview>
  <g
     inkscape:groupmode="layer"
     inkscape:label="Image"
     id="g1">
    <path
       style="fill:none;fill-opacity:1;fill-rule:evenodd;stroke:#107c10;stroke-width:11.5;stroke-linecap:round;stroke-linejoin:round;stroke-dasharray:none;stroke-opacity:1"
       d="m 86.380507,128.69757 h 45.515003 v -23.63356 l -0.006,23.63356 h 39.31761 c 7.17987,0.58613 17.24321,10.37952 17.47167,18.64164 v 18.50191"
       id="path27"
       inkscape:label="Wire"
       sodipodi:nodetypes="ccccccc" />
    <g
       id="g15"
       inkscape:label="Keyboard">
      <path
         style="fill:#a7a4e0;fill-opacity:1;fill-rule:evenodd;stroke:none;stroke-width:11.5;stroke-linecap:round;stroke-linejoin:round;stroke-dasharray:none;stroke-opacity:1"
         d="m 95.938185,157.16703 v -15.7557 c 0.0208,-0.66645 2.130315,-1.5597 2.763348,-1.59542 h 20.012217 c 2.08486,0.0133 4.02168,3.01106 4.03465,4.03464 v 12.2245 c -0.019,0.94901 -0.6434,2.53782 -1.46023,2.52919 H 97.342159 c -0.525955,-0.0518 -1.43137,-0.9427 -1.403974,-1.43721 z"
         id="path14"
         inkscape:label="Key 1"
         sodipodi:nodetypes="ccccccccc" />
      <path
         style="fill:#a7a4e0;fill-opacity:1;fill-rule:evenodd;stroke:none;stroke-width:11.5;stroke-linecap:round;stroke-linejoin:round;stroke-dasharray:none;stroke-opacity:1"
         d="m 123.62766,157.16703 v -15.7557 c 0.0208,-0.66645 2.13032,-1.5597 2.76335,-1.59542 h 20.01222 c 2.08486,0.0133 4.02168,3.01106 4.03465,4.03464 v 12.2245 c -0.019,0.94901 -0.6434,2.53782 -1.46023,2.52919 h -23.94601 c -0.52596,-0.0518 -1.43137,-0.9427 -1.40398,-1.43721 z"
         id="path15"
         inkscape:label="Key 2"
         sodipodi:nodetypes="ccccccccc" />
      <path
         style="fill:#a7a4e0;fill-opacity:1;fill-rule:evenodd;stroke:none;stroke-width:11.5;stroke-linecap:round;stroke-linejoin:round;stroke-dasharray:none;stroke-opacity:1"
         d="m 151.16114,157.16703 v -15.7557 c 0.0208,-0.66645 2.13032,-1.5597 2.76335,-1.59542 h 20.01222 c 2.08486,0.0133 4.02168,3.01106 4.03465,4.03464 v 12.2245 c -0.019,0.94901 -0.6434,2.53782 -1.46023,2.52919 h -23.94601 c -0.52596,-0.0518 -1.43137,-0.9427 -1.40398,-1.43721 z"
         id="path16"
         inkscape:label="Key 3"
         sodipodi:nodetypes="ccccccccc" />
      <path
         style="fill:#a7a4e0;fill-opacity:1;fill-rule:evenodd;stroke:none;stroke-width:11.5;stroke-linecap:round;stroke-linejoin:round;stroke-dasharray:none;stroke-opacity:1"
         d="m 67.156729,179.00661 v -15.7557 c 0.0208,-0.66645 2.13032,-1.5597 2.76335,-1.59542 h 20.012222 c 2.08486,0.0133 4.02168,3.01106 4.03465,4.03464 v 12.2245 c -0.019,0.94901 -0.6434,2.53782 -1.46023,2.52919 H 68.560709 c -0.52596,-0.0518 -1.43137,-0.9427 -1.40398,-1.43721 z"
         id="path17"
         inkscape:label="Key 4"
         sodipodi:nodetypes="ccccccccc" />
      <path
         style="fill:#a7a4e0;fill-opacity:1;fill-rule:evenodd;stroke:none;stroke-width:11.5;stroke-linecap:round;stroke-linejoin:round;stroke-dasharray:none;stroke-opacity:1"
         d="m 96.016183,179.00661 v -15.7557 c 0.0208,-0.66645 2.13032,-1.5597 2.76335,-1.59542 h 20.012227 c 2.08486,0.0133 4.02168,3.01106 4.03465,4.03464 v 12.2245 c -0.019,0.94901 -0.6434,2.53782 -1.46023,2.52919 H 97.420163 c -0.52596,-0.0518 -1.43137,-0.9427 -1.40398,-1.43721 z"
         id="path18"
         inkscape:label="Key 5"
         sodipodi:nodetypes="ccccccccc" />
      <path
         style="fill:#a7a4e0;fill-opacity:1;fill-rule:evenodd;stroke:none;stroke-width:11.5;stroke-linecap:round;stroke-linejoin:round;stroke-dasharray:none;stroke-opacity:1"
         d="m 123.54966,179.00661 v -15.7557 c 0.0208,-0.66645 2.13032,-1.5597 2.76335,-1.59542 h 20.01223 c 2.08486,0.0133 4.02168,3.01106 4.03465,4.03464 v 12.2245 c -0.019,0.94901 -0.6434,2.53782 -1.46023,2.52919 h -23.94602 c -0.52596,-0.0518 -1.43137,-0.9427 -1.40398,-1.43721 z"
         id="path19"
         inkscape:label="Key 6"
         sodipodi:nodetypes="ccccccccc" />
      <path
         style="fill:#a7a4e0;fill-opacity:1;fill-rule:evenodd;stroke:none;stroke-width:11.5;stroke-linecap:round;stroke-linejoin:round;stroke-dasharray:none;stroke-opacity:1"
         d="m 67.312724,201.78218 v -15.7557 c 0.0208,-0.66645 2.13032,-1.5597 2.76335,-1.59542 h 20.01223 c 2.08486,0.0133 4.02168,3.01106 4.03465,4.03464 v 12.2245 c -0.019,0.94901 -0.6434,2.53782 -1.46023,2.52919 h -23.94602 c -0.52596,-0.0518 -1.43137,-0.9427 -1.40398,-1.43721 z"
         id="path20"
         inkscape:label="Key 7"
         sodipodi:nodetypes="ccccccccc" />
      <path
         style="fill:#a7a4e0;fill-opacity:1;fill-rule:evenodd;stroke:none;stroke-width:11.5;stroke-linecap:round;stroke-linejoin:round;stroke-dasharray:none;stroke-opacity:1"
         d="m 95.938183,201.78218 v -15.7557 c 0.0208,-0.66645 2.13032,-1.5597 2.76335,-1.59542 h 20.012227 c 2.08486,0.0133 4.02168,3.01106 4.03465,4.03464 v 12.2245 c -0.019,0.94901 -0.6434,2.53782 -1.46023,2.52919 H 97.342163 c -0.52596,-0.0518 -1.43137,-0.9427 -1.40398,-1.43721 z"
         id="path21"
         inkscape:label="Key 8"
         sodipodi:nodetypes="ccccccccc" />
      <path
         style="fill:#a7a4e0;fill-opacity:1;fill-rule:evenodd;stroke:none;stroke-width:11.5;stroke-linecap:round;stroke-linejoin:round;stroke-dasharray:none;stroke-opacity:1"
         d="m 123.93965,201.78218 v -15.7557 c 0.0208,-0.66645 2.13032,-1.5597 2.76335,-1.59542 h 20.01223 c 2.08486,0.0133 4.02168,3.01106 4.03465,4.03464 v 12.2245 c -0.019,0.94901 -0.6434,2.53782 -1.46023,2.52919 h -23.94602 c -0.52596,-0.0518 -1.43137,-0.9427 -1.40398,-1.43721 z"
         id="path22"
         inkscape:label="Key 9"
         sodipodi:nodetypes="ccccccccc" />
      <path
         style="fill:#a7a4e0;fill-opacity:1;fill-rule:evenodd;stroke:none;stroke-width:11.5;stroke-linecap:round;stroke-linejoin:round;stroke-dasharray:none;stroke-opacity:1"
         d="m 66.688733,223.07578 v -15.7557 c 0.0208,-0.66645 2.13032,-1.5597 2.76335,-1.59542 h 20.01223 c 2.08486,0.0133 4.02168,3.01106 4.03465,4.03464 v 12.2245 c -0.019,0.94901 -0.6434,2.53782 -1.46023,2.52919 h -23.94602 c -0.52596,-0.0518 -1.43137,-0.9427 -1.40398,-1.43721 z"
         id="path23"
         inkscape:label="Key 10"
         sodipodi:nodetypes="ccccccccc" />
      <path
         style="fill:#a7a4e0;fill-opacity:1;fill-rule:evenodd;stroke:none;stroke-width:11.5;stroke-linecap:round;stroke-linejoin:round;stroke-dasharray:none;stroke-opacity:1"
         d="m 96.016178,223.15378 v -15.7557 c 0.0208,-0.66645 2.13032,-1.5597 2.76335,-1.59542 h 47.823102 c 2.08486,0.0133 4.02168,3.01106 4.03465,4.03464 v 12.2245 c -0.019,0.94901 -0.6434,2.53782 -1.46023,2.52919 H 97.420158 c -0.52596,-0.0518 -1.43137,-0.9427 -1.40398,-1.43721 z"
         id="path24"
         inkscape:label="Spacebar"
         sodipodi:nodetypes="ccccccccc" />
      <path
         style="fill:#a7a4e0;fill-opacity:1;fill-rule:evenodd;stroke:none;stroke-width:11.5;stroke-linecap:round;stroke-linejoin:round;stroke-dasharray:none;stroke-opacity:1"
         d="m 151.16114,179.27958 v -15.7557 c 0.0208,-0.66645 2.13032,-1.5597 2.76335,-1.59542 h 20.01222 c 2.08486,0.0133 4.02168,3.01106 4.03465,4.03464 v 7.58359 c -6.23718,1.65802 -10.37085,3.90279 -14.46362,7.1701 h -10.94262 c -0.52596,-0.0518 -1.43137,-0.9427 -1.40398,-1.43721 z"
         id="path25"
         inkscape:label="Key Corner Right"
         sodipodi:nodetypes="ccccccccc" />
      <path
         style="fill:#a7a4e0;fill-opacity:1;fill-rule:evenodd;stroke:none;stroke-width:11.5;stroke-linecap:round;stroke-linejoin:round;stroke-dasharray:none;stroke-opacity:1"
         d="m 66.61074,157.16703 v -10.6858 c 1.853765,-1.56343 4.197276,-4.87463 5.688293,-6.66532 h 17.087272 c 2.08486,0.0133 4.02168,3.01106 4.03465,4.03464 v 12.2245 c -0.019,0.94901 -0.6434,2.53782 -1.46023,2.52919 H 68.014714 c -0.525955,-0.0518 -1.43137,-0.9427 -1.403974,-1.43721 z"
         id="path26"
         inkscape:label="Key Corner Left"
         sodipodi:nodetypes="ccccccccc" />
    </g>
    <g
       id="g3"
       inkscape:label="Mouse">
      <path
         style="display:inline;fill:#040203;fill-opacity:1;fill-rule:evenodd;stroke:none;stroke-width:2;stroke-linecap:round;stroke-linejoin:round"
         d="m 177.42812,175.99418 c -9.73317,2.81798 -19.53819,10.28998 -23.99168,26.74934 l -0.0551,51.78894 c 3.48534,17.14988 18.68917,27.44809 27.35956,28.01787 l 15.35214,0.0553 c 9.24323,-0.28123 25.8932,-14.07613 27.88451,-30.72054 l -0.0552,-47.98336 c -2.3476,-17.32345 -16.29362,-25.31217 -24.04683,-28.01787 z"
         id="path1"
         inkscape:label="Back Plane Mouse"
         sodipodi:nodetypes="ccccccccc" />
      <path
         style="display:inline;fill:#707372;fill-opacity:1;fill-rule:evenodd;stroke:none;stroke-width:2;stroke-linecap:round;stroke-linejoin:round"
         d="m 177.42812,175.99418 c -9.73317,2.81798 -19.53819,10.28998 -23.99168,26.74934 l -0.0551,51.78894 c 3.48534,17.14988 18.68917,27.44809 27.35956,28.01787 l 15.35214,0.0553 c 9.24323,-0.28123 25.8932,-14.07613 27.88451,-30.72054 l -0.0552,-47.98336 c -2.3476,-17.32345 -16.29362,-25.31217 -24.04683,-28.01787 l -9.19681,0.0827 -0.009,13.39015 c 4.99191,0.81898 5.55445,8.95762 5.43745,10.98558 -0.039,3.35393 -0.21412,12.11817 -6.73024,13.26254 -0.003,3.53277 -0.55679,9.0097 -0.55679,9.0097 0,0 -0.2751,-4.83611 -0.48625,-9.06486 -2.3716,-0.1103 -6.25692,-2.04041 -6.94438,-12.75163 0.10361,-2.00789 0.95605,-9.59497 5.36594,-11.48032 l -0.048,-13.35115 z"
         id="path2"
         inkscape:label="Fore Plane Mouse"
         sodipodi:nodetypes="cccccccccccccccccc" />
      <path
         style="fill:#514689;fill-opacity:1;fill-rule:evenodd;stroke:none;stroke-width:2;stroke-linecap:round;stroke-linejoin:round"
         d="m 188.70128,191.90037 c -2.64207,0.10596 -3.30941,4.61502 -3.41578,7.46386 -0.0284,3.08284 -0.26946,10.67827 3.35393,10.6078 3.62339,0.0398 3.11225,-7.43837 3.23694,-10.4908 0.0467,-3.05243 -0.57202,-7.49183 -3.17509,-7.58086 z"
         id="path3"
         inkscape:label="Mouse Scroll Wheel"
         sodipodi:nodetypes="ccccc" />
    </g>
    <g
       id="g4"
       inkscape:label="Controller">
      <path
         style="fill:#040203;fill-opacity:1;fill-rule:evenodd;stroke:#107c10;stroke-width:11.5;stroke-linecap:round;stroke-linejoin:round;stroke-dasharray:none;stroke-opacity:1"
         d="m 102.95805,22.463575 h 60.52686 c 12.0128,-7.844143 23.90705,-17.4940124 36.50331,-16.223693 43.72163,4.409279 86.14232,144.175578 31.19941,151.629128 -19.96956,0.63173 -43.2625,-39.62167 -52.72701,-54.28697 H 88.29433 C 71.412113,115.84675 59.341227,153.2654 37.439292,156.62104 -29.708468,159.91229 22.636027,4.9540817 70.82266,5.3038997 82.568568,5.3891709 93.209946,15.108446 102.95805,22.463575 Z"
         id="path12"
         inkscape:label="Controller"
         sodipodi:nodetypes="ccccccccc" />
      <g
         id="g14"
         inkscape:label="Sticks">
        <path
           style="fill:#707372;fill-rule:evenodd;stroke-width:2.77463;stroke-linecap:round;stroke-linejoin:round;fill-opacity:1"
           d="m 101.5508,93.977186 c 5.77035,0.09427 12.2424,-6.471278 12.2424,-12.242401 0,-5.554707 -6.22864,-11.801231 -11.78331,-11.783312 -5.590875,0.01803 -11.710033,6.345929 -11.783318,11.936341 -0.07238,5.52111 5.803373,11.999187 11.324228,12.089372 z"
           id="path11-1"
           inkscape:label="Stick left"
           sodipodi:nodetypes="aaaaa" />
        <path
           style="fill:#707372;fill-rule:evenodd;stroke-width:2.77463;stroke-linecap:round;stroke-linejoin:round;fill-opacity:1"
           d="m 163.70826,93.933772 c 5.77035,0.09427 12.2424,-6.471278 12.2424,-12.242401 0,-5.554707 -6.22864,-11.801231 -11.78331,-11.783312 -5.59087,0.01803 -11.71003,6.345929 -11.78332,11.936341 -0.0724,5.52111 5.80338,11.999187 11.32423,12.089372 z"
           id="path11-1-3"
           inkscape:label="Stick Right"
           sodipodi:nodetypes="aaaaa" />
      </g>
      <g
         id="g2"
         inkscape:label="DPad"
         transform="matrix(0.73736614,0,0,0.73736614,-75.807934,9.7167525)">
        <path
           style="fill:#54585a;fill-opacity:1;fill-rule:evenodd;stroke:none;stroke-width:2;stroke-linecap:round;stroke-linejoin:round"
           d="m 165.60291,54.661215 17.17895,0.01575 c 0,0 8.13777,7.161367 8.17057,8.622807 -0.0347,1.245449 -8.00663,8.708744 -8.00663,8.708744 l -17.34277,-0.004 z"
           id="path4"
           inkscape:label="DPad Left"
           sodipodi:nodetypes="cccccc" />
        <path
           style="fill:#54585a;fill-opacity:1;fill-rule:evenodd;stroke:none;stroke-width:2;stroke-linecap:round;stroke-linejoin:round"
           d="m 219.96864,71.894463 -17.17891,-0.04088 c 0,0 -8.12729,-7.173263 -8.15795,-8.634749 0.0365,-1.245397 8.01936,-8.697024 8.01936,-8.697024 l 17.34275,0.02937 z"
           id="path5"
           inkscape:label="DPad Right"
           sodipodi:nodetypes="cccccc" />
        <path
           style="fill:#54585a;fill-opacity:1;fill-rule:evenodd;stroke:none;stroke-width:2;stroke-linecap:round;stroke-linejoin:round"
           d="m 184.00149,90.621524 0.0409,-17.17891 c 0,0 7.17326,-8.12729 8.63475,-8.15795 1.24539,0.0365 8.69702,8.01936 8.69702,8.01936 l -0.0294,17.34275 z"
           id="path7"
           inkscape:label="DPad Down"
           sodipodi:nodetypes="cccccc" />
        <path
           style="fill:#54585a;fill-opacity:1;fill-rule:evenodd;stroke:none;stroke-width:2;stroke-linecap:round;stroke-linejoin:round"
           d="m 201.37416,35.809914 -0.0409,17.17891 c 0,0 -7.17326,8.12729 -8.63475,8.15795 -1.24539,-0.0365 -8.69702,-8.01936 -8.69702,-8.01936 l 0.0294,-17.34275 z"
           id="path6"
           inkscape:label="DPad Up"
           sodipodi:nodetypes="cccccc" />
      </g>
      <g
         id="g11"
         inkscape:label="Buttons"
         transform="translate(133.52448,-4.6799115)">
        <path
           style="fill:#ecdb33;fill-rule:evenodd;stroke-width:2;stroke-linecap:round;stroke-linejoin:round;fill-opacity:1"
           d="m 70.265286,54.491446 c 4.120829,0.04781 8.658298,-4.703419 8.659065,-8.824525 7.38e-4,-3.965117 -4.363035,-8.486896 -8.328146,-8.493606 -4.030002,-0.0068 -8.440781,4.574251 -8.493606,8.603912 -0.05217,3.979707 4.182906,8.668042 8.162687,8.714219 z"
           id="path8"
           inkscape:label="Button North"
           sodipodi:nodetypes="aaaaa" />
        <path
           style="fill:#3cdb4e;fill-opacity:1;fill-rule:evenodd;stroke-width:2;stroke-linecap:round;stroke-linejoin:round"
           d="m 70.911328,83.526094 c 4.133644,0.05452 8.713709,-4.690522 8.714219,-8.824525 4.91e-4,-3.97801 -4.40529,-8.493438 -8.3833,-8.493606 -4.030008,-1.7e-4 -8.440781,4.574251 -8.493606,8.603912 -0.05217,3.979707 4.182985,8.661726 8.162687,8.714219 z"
           id="path9"
           inkscape:label="Button South"
           sodipodi:nodetypes="aaaaa" />
        <path
           style="fill:#d04242;fill-rule:evenodd;stroke-width:2;stroke-linecap:round;stroke-linejoin:round;fill-opacity:1"
           d="m 86.228382,68.670711 c 4.108045,0.0411 8.602886,-4.716274 8.603912,-8.824525 9.87e-4,-3.952267 -4.320748,-8.480355 -8.272993,-8.493606 -4.029985,-0.01351 -8.440781,4.574251 -8.493606,8.603912 -0.05217,3.979707 4.182838,8.674398 8.162687,8.714219 z"
           id="path10"
           inkscape:label="Button West"
           sodipodi:nodetypes="aaaaa" />
        <path
           style="fill:#40ccd0;fill-rule:evenodd;stroke-width:2;stroke-linecap:round;stroke-linejoin:round;fill-opacity:1"
           d="m 55.319418,69.176553 c 4.159366,0.06795 8.824525,-4.664604 8.824525,-8.824525 0,-4.003924 -4.489703,-8.506522 -8.493606,-8.493606 -4.029987,0.013 -8.440781,4.574251 -8.493606,8.603912 -0.05217,3.979707 4.183169,8.649212 8.162687,8.714219 z"
           id="path11"
           inkscape:label="Button East"
           sodipodi:nodetypes="aaaaa" />
      </g>
      <g
         id="g13"
         inkscape:label="Actions">
        <path
           style="fill:#a7a4e0;fill-opacity:1;fill-rule:evenodd;stroke:none;stroke-width:11.5;stroke-linecap:round;stroke-linejoin:round;stroke-dasharray:none;stroke-opacity:1"
           d="m 106.70238,48.058178 c 0,-2.401356 2.54518,-2.276488 2.54518,-2.276488 l 12.76662,-0.039 c 0,0 2.35965,-0.112566 2.35965,2.471484 0,2.461037 -2.44319,2.229649 -2.44319,2.229649 l -12.77781,-0.08746 c 0,0 -2.45045,0.08033 -2.45045,-2.298187 z"
           id="path13"
           sodipodi:nodetypes="cccccccc"
           inkscape:label="Select" />
        <path
           style="fill:#514689;fill-opacity:1;fill-rule:evenodd;stroke:none;stroke-width:11.5;stroke-linecap:round;stroke-linejoin:round;stroke-dasharray:none;stroke-opacity:1"
           d="m 142,48.462722 c 0,-2.401356 2.54518,-2.276488 2.54518,-2.276488 l 12.76662,-0.039 c 0,0 2.35965,-0.112566 2.35965,2.471484 0,2.461037 -2.44319,2.229649 -2.44319,2.229649 l -12.77781,-0.08746 c 0,0 -2.45045,0.08033 -2.45045,-2.298187 z"
           id="path13-3"
           sodipodi:nodetypes="cccccccc"
           inkscape:label="Start" />
      </g>
    </g>
  </g>
</svg>
